<svg width="19" height="19" viewBox="0 0 19 19" fill="none" xmlns="http://www.w3.org/2000/svg">
<g clip-path="url(#clip0_5_163)">
<path d="M11.4603 3.73988C11.4603 3.57988 11.4103 3.44988 11.3103 3.34988C11.2103 3.24988 11.0803 3.19988 10.9203 3.19988H5.28031C5.12031 3.19988 4.99031 3.24988 4.89031 3.34988C4.79031 3.44988 4.74031 3.57988 4.74031 3.73988V8.23988C4.74031 8.39988 4.79031 8.53988 4.89031 8.65988C4.99031 8.77988 5.12031 8.83988 5.28031 8.83988H10.9203C11.0803 8.83988 11.2103 8.77988 11.3103 8.65988C11.4103 8.53988 11.4603 8.39988 11.4603 8.23988V3.73988ZM10.3203 7.69988H5.82031V4.33988H10.3203V7.69988ZM17.9403 4.33988L15.6603 3.25988C15.5403 3.17988 15.4003 3.15988 15.2403 3.19988C15.0803 3.23988 14.9703 3.32988 14.9103 3.46988C14.8503 3.60988 14.8403 3.75988 14.8803 3.91988C14.9203 4.07988 15.0203 4.17988 15.1803 4.21988L16.0203 4.69988L15.9603 4.87988C15.9603 5.23988 16.0703 5.55988 16.2903 5.83988C16.5103 6.11988 16.7803 6.31988 17.1003 6.43988V13.2799C17.1003 13.4399 17.0403 13.5799 16.9203 13.6999C16.8003 13.8199 16.6703 13.8799 16.5303 13.8799C16.3903 13.8799 16.2603 13.8199 16.1403 13.6999C16.0203 13.5799 15.9603 13.4399 15.9603 13.2799V8.77988C15.9603 8.13988 15.7303 7.55988 15.2703 7.03988C14.8103 6.51988 14.3003 6.19988 13.7403 6.07988V2.59988C13.7403 1.99988 13.5203 1.47988 13.0803 1.03988C12.6403 0.599884 12.1203 0.379883 11.5203 0.379883H4.74031C4.14031 0.379883 3.61031 0.599884 3.15031 1.03988C2.69031 1.47988 2.46031 1.99988 2.46031 2.59988V15.1999L1.68031 15.6199C1.44031 15.7399 1.32031 15.8999 1.32031 16.0999V17.7799C1.32031 17.9399 1.38031 18.0799 1.50031 18.1999C1.62031 18.3199 1.76031 18.3799 1.92031 18.3799H14.2803C14.4403 18.3799 14.5703 18.3199 14.6703 18.1999C14.7703 18.0799 14.8203 17.9399 14.8203 17.7799V16.0999C14.8203 15.8999 14.7203 15.7399 14.5203 15.6199L13.7403 15.1999V7.21988C14.0203 7.33988 14.2703 7.54988 14.4903 7.84988C14.7103 8.14988 14.8203 8.45988 14.8203 8.77988V13.2799C14.8203 13.7599 14.9903 14.1699 15.3303 14.5099C15.6703 14.8499 16.0703 15.0199 16.5303 15.0199C16.9903 15.0199 17.3903 14.8499 17.7303 14.5099C18.0703 14.1699 18.2403 13.7599 18.2403 13.2799V4.87988C18.2403 4.63988 18.1403 4.45988 17.9403 4.33988ZM13.7403 17.2399H2.46031V16.4599L3.30031 16.0399C3.50031 15.9599 3.60031 15.7999 3.60031 15.5599V2.59988C3.60031 2.31988 3.71031 2.06988 3.93031 1.84988C4.15031 1.62988 4.42031 1.51988 4.74031 1.51988H11.5203C11.8003 1.51988 12.0503 1.62988 12.2703 1.84988C12.4903 2.06988 12.6003 2.31988 12.6003 2.59988V15.5599C12.6003 15.7999 12.7003 15.9599 12.9003 16.0399L13.7403 16.4599V17.2399Z" fill="#050B20"/>
</g>
<defs>
<clipPath id="clip0_5_163">
<rect width="18" height="18" fill="white" transform="matrix(1 0 0 -1 0.78125 18.3799)"/>
</clipPath>
</defs>
</svg>
