<svg width="19" height="19" viewBox="0 0 19 19" fill="none" xmlns="http://www.w3.org/2000/svg">
<g clip-path="url(#clip0_5_129)">
<path d="M18.3789 10.9998C18.3789 13.0398 17.7789 14.8598 16.5789 16.4598C16.4589 16.6198 16.2989 16.7098 16.0989 16.7298C15.8989 16.7498 15.7189 16.6998 15.5589 16.5798C15.3989 16.4598 15.3089 16.3098 15.2889 16.1298C15.2689 15.9498 15.3189 15.7798 15.4389 15.6198C16.4789 14.2598 16.9989 12.7198 16.9989 10.9998C16.9989 9.63985 16.6589 8.37985 15.9789 7.21985C15.2989 6.05985 14.3689 5.13985 13.1889 4.45985C12.0089 3.77985 10.7389 3.43985 9.37891 3.43985C8.01891 3.43985 6.74891 3.77985 5.56891 4.45985C4.38891 5.13985 3.45891 6.05985 2.77891 7.21985C2.09891 8.37985 1.75891 9.63985 1.75891 10.9998C1.75891 12.7198 2.27891 14.2598 3.31891 15.6198C3.43891 15.7798 3.48891 15.9498 3.46891 16.1298C3.44891 16.3098 3.35891 16.4598 3.19891 16.5798C3.03891 16.6998 2.85891 16.7498 2.65891 16.7298C2.45891 16.7098 2.29891 16.6198 2.17891 16.4598C0.978906 14.8598 0.378906 13.0398 0.378906 10.9998C0.378906 9.39985 0.778906 7.90985 1.57891 6.52985C2.37891 5.14985 3.46891 4.05985 4.84891 3.25985C6.22891 2.45985 7.73891 2.05985 9.37891 2.05985C11.0189 2.05985 12.5289 2.45985 13.9089 3.25985C15.2889 4.05985 16.3789 5.14985 17.1789 6.52985C17.9789 7.90985 18.3789 9.39985 18.3789 10.9998ZM13.8189 6.79985C13.9789 6.91985 14.0589 7.07985 14.0589 7.27985C14.0589 7.47985 13.9789 7.63985 13.8189 7.75985L11.5389 10.0998C11.7389 10.4598 11.8389 10.8398 11.8389 11.2398C11.8389 11.9198 11.5989 12.4998 11.1189 12.9798C10.6389 13.4598 10.0589 13.6998 9.37891 13.6998C8.69891 13.6998 8.11891 13.4598 7.63891 12.9798C7.15891 12.4998 6.91891 11.9198 6.91891 11.2398C6.91891 10.5598 7.15891 9.97985 7.63891 9.49985C8.11891 9.01985 8.69891 8.77985 9.37891 8.77985C9.77891 8.77985 10.1589 8.87985 10.5189 9.07985L12.8589 6.79985C12.9789 6.63985 13.1389 6.55985 13.3389 6.55985C13.5389 6.55985 13.6989 6.63985 13.8189 6.79985ZM10.4589 11.2398C10.4589 10.9598 10.3489 10.7198 10.1289 10.5198C9.90891 10.3198 9.65891 10.2198 9.37891 10.2198C9.09891 10.2198 8.84891 10.3198 8.62891 10.5198C8.40891 10.7198 8.29891 10.9598 8.29891 11.2398C8.29891 11.5198 8.40891 11.7698 8.62891 11.9898C8.84891 12.2098 9.09891 12.3198 9.37891 12.3198C9.65891 12.3198 9.90891 12.2098 10.1289 11.9898C10.3489 11.7698 10.4589 11.5198 10.4589 11.2398Z" fill="#050B20"/>
</g>
<defs>
<clipPath id="clip0_5_129">
<rect width="18" height="18" fill="white" transform="matrix(1 0 0 -1 0.378906 18.3799)"/>
</clipPath>
</defs>
</svg>
