<svg width="19" height="19" viewBox="0 0 19 19" fill="none" xmlns="http://www.w3.org/2000/svg">
<path d="M3.21969 2.05995C2.65969 2.05995 2.17969 2.25995 1.77969 2.65995C1.37969 3.05995 1.17969 3.54995 1.17969 4.12995C1.17969 4.70995 1.37969 5.19995 1.77969 5.59995C2.17969 5.99995 2.65969 6.19995 3.21969 6.19995C3.77969 6.19995 4.25969 5.99995 4.65969 5.59995C5.05969 5.19995 5.25969 4.70995 5.25969 4.12995C5.25969 3.54995 5.05969 3.05995 4.65969 2.65995C4.25969 2.25995 3.77969 2.05995 3.21969 2.05995ZM3.21969 3.19995C3.45969 3.19995 3.67969 3.28995 3.87969 3.46995C4.07969 3.64995 4.17969 3.86995 4.17969 4.12995C4.17969 4.38995 4.07969 4.60995 3.87969 4.78995C3.67969 4.96995 3.45969 5.05995 3.21969 5.05995C2.97969 5.05995 2.75969 4.96995 2.55969 4.78995C2.35969 4.60995 2.25969 4.38995 2.25969 4.12995C2.25969 3.86995 2.35969 3.64995 2.55969 3.46995C2.75969 3.28995 2.97969 3.19995 3.21969 3.19995ZM3.21969 12.56C2.65969 12.56 2.17969 12.76 1.77969 13.16C1.37969 13.56 1.17969 14.05 1.17969 14.63C1.17969 15.21 1.37969 15.7 1.77969 16.1C2.17969 16.5 2.65969 16.7 3.21969 16.7C3.77969 16.7 4.25969 16.5 4.65969 16.1C5.05969 15.7 5.25969 15.21 5.25969 14.63C5.25969 14.05 5.05969 13.56 4.65969 13.16C4.25969 12.76 3.77969 12.56 3.21969 12.56ZM3.21969 13.7C3.45969 13.7 3.67969 13.79 3.87969 13.97C4.07969 14.15 4.17969 14.37 4.17969 14.63C4.17969 14.89 4.07969 15.11 3.87969 15.29C3.67969 15.47 3.45969 15.56 3.21969 15.56C2.97969 15.56 2.75969 15.47 2.55969 15.29C2.35969 15.11 2.25969 14.89 2.25969 14.63C2.25969 14.37 2.35969 14.15 2.55969 13.97C2.75969 13.79 2.97969 13.7 3.21969 13.7ZM9.21969 2.05995C8.65969 2.05995 8.17969 2.25995 7.77969 2.65995C7.37969 3.05995 7.17969 3.54995 7.17969 4.12995C7.17969 4.70995 7.37969 5.19995 7.77969 5.59995C8.17969 5.99995 8.65969 6.19995 9.21969 6.19995C9.77969 6.19995 10.2597 5.99995 10.6597 5.59995C11.0597 5.19995 11.2597 4.70995 11.2597 4.12995C11.2597 3.54995 11.0597 3.05995 10.6597 2.65995C10.2597 2.25995 9.77969 2.05995 9.21969 2.05995ZM9.21969 3.19995C9.45969 3.19995 9.67969 3.28995 9.87969 3.46995C10.0797 3.64995 10.1797 3.86995 10.1797 4.12995C10.1797 4.38995 10.0797 4.60995 9.87969 4.78995C9.67969 4.96995 9.45969 5.05995 9.21969 5.05995C8.97969 5.05995 8.75969 4.96995 8.55969 4.78995C8.35969 4.60995 8.25969 4.38995 8.25969 4.12995C8.25969 3.86995 8.35969 3.64995 8.55969 3.46995C8.75969 3.28995 8.97969 3.19995 9.21969 3.19995ZM9.21969 12.56C8.65969 12.56 8.17969 12.76 7.77969 13.16C7.37969 13.56 7.17969 14.05 7.17969 14.63C7.17969 15.21 7.37969 15.7 7.77969 16.1C8.17969 16.5 8.65969 16.7 9.21969 16.7C9.77969 16.7 10.2597 16.5 10.6597 16.1C11.0597 15.7 11.2597 15.21 11.2597 14.63C11.2597 14.05 11.0597 13.56 10.6597 13.16C10.2597 12.76 9.77969 12.56 9.21969 12.56ZM9.21969 13.7C9.45969 13.7 9.67969 13.79 9.87969 13.97C10.0797 14.15 10.1797 14.37 10.1797 14.63C10.1797 14.89 10.0797 15.11 9.87969 15.29C9.67969 15.47 9.45969 15.56 9.21969 15.56C8.97969 15.56 8.75969 15.47 8.55969 15.29C8.35969 15.11 8.25969 14.89 8.25969 14.63C8.25969 14.37 8.35969 14.15 8.55969 13.97C8.75969 13.79 8.97969 13.7 9.21969 13.7ZM15.2197 2.05995C14.6597 2.05995 14.1797 2.25995 13.7797 2.65995C13.3797 3.05995 13.1797 3.54995 13.1797 4.12995C13.1797 4.70995 13.3797 5.19995 13.7797 5.59995C14.1797 5.99995 14.6597 6.19995 15.2197 6.19995C15.7797 6.19995 16.2597 5.99995 16.6597 5.59995C17.0597 5.19995 17.2597 4.70995 17.2597 4.12995C17.2597 3.54995 17.0597 3.05995 16.6597 2.65995C16.2597 2.25995 15.7797 2.05995 15.2197 2.05995ZM15.2197 3.19995C15.4597 3.19995 15.6797 3.28995 15.8797 3.46995C16.0797 3.64995 16.1797 3.86995 16.1797 4.12995C16.1797 4.38995 16.0797 4.60995 15.8797 4.78995C15.6797 4.96995 15.4597 5.05995 15.2197 5.05995C14.9797 5.05995 14.7597 4.96995 14.5597 4.78995C14.3597 4.60995 14.2597 4.38995 14.2597 4.12995C14.2597 3.86995 14.3597 3.64995 14.5597 3.46995C14.7597 3.28995 14.9797 3.19995 15.2197 3.19995ZM15.2197 12.56C14.6597 12.56 14.1797 12.76 13.7797 13.16C13.3797 13.56 13.1797 14.05 13.1797 14.63C13.1797 15.21 13.3797 15.7 13.7797 16.1C14.1797 16.5 14.6597 16.7 15.2197 16.7C15.7797 16.7 16.2597 16.5 16.6597 16.1C17.0597 15.7 17.2597 15.21 17.2597 14.63C17.2597 14.05 17.0597 13.56 16.6597 13.16C16.2597 12.76 15.7797 12.56 15.2197 12.56ZM15.2197 13.7C15.4597 13.7 15.6797 13.79 15.8797 13.97C16.0797 14.15 16.1797 14.37 16.1797 14.63C16.1797 14.89 16.0797 15.11 15.8797 15.29C15.6797 15.47 15.4597 15.56 15.2197 15.56C14.9797 15.56 14.7597 15.47 14.5597 15.29C14.3597 15.11 14.2597 14.89 14.2597 14.63C14.2597 14.37 14.3597 14.15 14.5597 13.97C14.7597 13.79 14.9797 13.7 15.2197 13.7ZM2.67969 5.59995V13.1C2.67969 13.26 2.72969 13.4 2.82969 13.52C2.92969 13.64 3.05969 13.7 3.21969 13.7C3.37969 13.7 3.50969 13.64 3.60969 13.52C3.70969 13.4 3.75969 13.28 3.75969 13.16V5.59995C3.75969 5.47995 3.70969 5.35995 3.60969 5.23995C3.50969 5.11995 3.37969 5.05995 3.21969 5.05995C3.05969 5.05995 2.92969 5.11995 2.82969 5.23995C2.72969 5.35995 2.67969 5.47995 2.67969 5.59995ZM8.67969 5.59995V13.1C8.67969 13.26 8.72969 13.4 8.82969 13.52C8.92969 13.64 9.05969 13.7 9.21969 13.7C9.37969 13.7 9.50969 13.64 9.60969 13.52C9.70969 13.4 9.75969 13.28 9.75969 13.16V5.59995C9.75969 5.47995 9.70969 5.35995 9.60969 5.23995C9.50969 5.11995 9.37969 5.05995 9.21969 5.05995C9.05969 5.05995 8.92969 5.11995 8.82969 5.23995C8.72969 5.35995 8.67969 5.47995 8.67969 5.59995ZM14.6797 5.59995V8.59995C14.6797 8.67995 14.6597 8.73995 14.6197 8.77995C14.5797 8.81995 14.5397 8.83995 14.4997 8.83995H3.21969C3.05969 8.83995 2.92969 8.88995 2.82969 8.98995C2.72969 9.08995 2.67969 9.21995 2.67969 9.37995C2.67969 9.53995 2.72969 9.66995 2.82969 9.76995C2.92969 9.86995 3.05969 9.91995 3.21969 9.91995H14.4997C14.8597 9.91995 15.1597 9.79995 15.3997 9.55995C15.6397 9.31995 15.7597 8.99995 15.7597 8.59995V5.65995C15.7597 5.49995 15.7097 5.35995 15.6097 5.23995C15.5097 5.11995 15.3797 5.05995 15.2197 5.05995C15.0597 5.05995 14.9297 5.11995 14.8297 5.23995C14.7297 5.35995 14.6797 5.47995 14.6797 5.59995Z" fill="#050B20"/>
</svg>
